<mxfile host="65bd71144e">
    <diagram id="0Asa_uwm-BRLgnlMTFJN" name="Page-1">
        <mxGraphModel dx="1190" dy="607" grid="1" gridSize="10" guides="1" tooltips="1" connect="1" arrows="1" fold="1" page="1" pageScale="1" pageWidth="850" pageHeight="1100" math="0" shadow="0">
            <root>
                <mxCell id="0"/>
                <mxCell id="1" parent="0"/>
                <mxCell id="2" value="" style="rounded=1;whiteSpace=wrap;html=1;fillColor=#dae8fc;strokeColor=#6c8ebf;" vertex="1" parent="1">
                    <mxGeometry x="350" y="80" width="180" height="110" as="geometry"/>
                </mxCell>
                <mxCell id="3" value="" style="verticalLabelPosition=bottom;html=1;verticalAlign=top;align=center;strokeColor=none;fillColor=#00BEF2;shape=mxgraph.azure.virtual_network;pointerEvents=1;" vertex="1" parent="1">
                    <mxGeometry x="475" y="190" width="50" height="27.500000000000004" as="geometry"/>
                </mxCell>
                <mxCell id="4" value="" style="rounded=1;whiteSpace=wrap;html=1;fillColor=#f8cecc;strokeColor=#b85450;" vertex="1" parent="1">
                    <mxGeometry x="105" y="400" width="180" height="130" as="geometry"/>
                </mxCell>
                <mxCell id="5" value="" style="verticalLabelPosition=bottom;html=1;verticalAlign=top;align=center;strokeColor=none;fillColor=#00BEF2;shape=mxgraph.azure.virtual_network;pointerEvents=1;" vertex="1" parent="1">
                    <mxGeometry x="230" y="530" width="50" height="27.500000000000004" as="geometry"/>
                </mxCell>
                <mxCell id="6" value="" style="rounded=1;whiteSpace=wrap;html=1;fillColor=#fff2cc;strokeColor=#d6b656;" vertex="1" parent="1">
                    <mxGeometry x="570" y="410" width="180" height="130" as="geometry"/>
                </mxCell>
                <mxCell id="7" value="" style="verticalLabelPosition=bottom;html=1;verticalAlign=top;align=center;strokeColor=none;fillColor=#00BEF2;shape=mxgraph.azure.virtual_network;pointerEvents=1;" vertex="1" parent="1">
                    <mxGeometry x="700" y="540" width="50" height="27.500000000000004" as="geometry"/>
                </mxCell>
                <mxCell id="8" value="Hub" style="text;html=1;strokeColor=none;fillColor=none;align=center;verticalAlign=middle;whiteSpace=wrap;rounded=0;" vertex="1" parent="1">
                    <mxGeometry x="470" y="217.5" width="60" height="30" as="geometry"/>
                </mxCell>
                <mxCell id="9" value="Spoke1" style="text;html=1;strokeColor=none;fillColor=none;align=center;verticalAlign=middle;whiteSpace=wrap;rounded=0;" vertex="1" parent="1">
                    <mxGeometry x="225" y="550" width="60" height="30" as="geometry"/>
                </mxCell>
                <mxCell id="11" value="Spoke2" style="text;html=1;strokeColor=none;fillColor=none;align=center;verticalAlign=middle;whiteSpace=wrap;rounded=0;" vertex="1" parent="1">
                    <mxGeometry x="695" y="560" width="60" height="30" as="geometry"/>
                </mxCell>
                <mxCell id="18" value="" style="endArrow=classic;startArrow=classic;html=1;exitX=0.417;exitY=0.01;exitDx=0;exitDy=0;exitPerimeter=0;" edge="1" parent="1" source="4" target="20">
                    <mxGeometry width="50" height="50" relative="1" as="geometry">
                        <mxPoint x="540" y="380" as="sourcePoint"/>
                        <mxPoint x="590" y="330" as="targetPoint"/>
                    </mxGeometry>
                </mxCell>
                <mxCell id="19" value="" style="endArrow=classic;startArrow=classic;html=1;exitX=0.565;exitY=-0.003;exitDx=0;exitDy=0;exitPerimeter=0;" edge="1" parent="1" source="6" target="20">
                    <mxGeometry width="50" height="50" relative="1" as="geometry">
                        <mxPoint x="540" y="380" as="sourcePoint"/>
                        <mxPoint x="590" y="330" as="targetPoint"/>
                    </mxGeometry>
                </mxCell>
                <mxCell id="20" value="" style="aspect=fixed;html=1;points=[];align=center;image;fontSize=12;image=img/lib/azure2/networking/Firewalls.svg;" vertex="1" parent="1">
                    <mxGeometry x="407" y="150" width="35.5" height="30" as="geometry"/>
                </mxCell>
                <mxCell id="21" value="&lt;font style=&quot;font-size: 6px;&quot;&gt;Az Fw&lt;/font&gt;" style="text;html=1;strokeColor=none;fillColor=none;align=center;verticalAlign=middle;whiteSpace=wrap;rounded=0;" vertex="1" parent="1">
                    <mxGeometry x="430" y="155" width="45" height="20" as="geometry"/>
                </mxCell>
                <mxCell id="23" value="" style="verticalLabelPosition=bottom;html=1;verticalAlign=top;align=center;strokeColor=none;fillColor=#00BEF2;shape=mxgraph.azure.virtual_machine;fontSize=6;" vertex="1" parent="1">
                    <mxGeometry x="412.5" y="90" width="30" height="20" as="geometry"/>
                </mxCell>
                <mxCell id="25" value="&lt;a style=&quot;vertical-align: middle; padding: 1px; cursor: pointer; font-family: az_ea_font, &amp;quot;Segoe UI&amp;quot;, az_font, system-ui, -apple-system, BlinkMacSystemFont, Roboto, Oxygen, Ubuntu, Cantarell, &amp;quot;Open Sans&amp;quot;, &amp;quot;Helvetica Neue&amp;quot;, sans-serif; text-align: left; background-color: rgb(225, 223, 221); outline: 0px !important;&quot; href=&quot;https://ms.portal.azure.com/#@fdpo.onmicrosoft.com/resource/subscriptions/a4759024-5fdf-4cd9-8def-f6fd09cbbcdb/resourceGroups/rg-ci-prd-hub-01/providers/Microsoft.Network/virtualNetworks/vnet-ci-prd-hub-01&quot; tabindex=&quot;0&quot; class=&quot;fxc-gcflink-link msportalfx-activated&quot;&gt;&lt;font style=&quot;font-size: 8px;&quot;&gt;vnet-ci-prd-hub-01&lt;/font&gt;&lt;/a&gt;" style="text;html=1;strokeColor=none;fillColor=none;align=center;verticalAlign=middle;whiteSpace=wrap;rounded=0;fontSize=6;" vertex="1" parent="1">
                    <mxGeometry x="435" y="90" width="130" height="20" as="geometry"/>
                </mxCell>
                <mxCell id="22" value="" style="verticalLabelPosition=bottom;html=1;verticalAlign=top;align=center;strokeColor=none;fillColor=#00BEF2;shape=mxgraph.azure.virtual_machine;fontSize=6;" vertex="1" parent="1">
                    <mxGeometry x="160" y="440" width="30" height="20" as="geometry"/>
                </mxCell>
                <mxCell id="24" value="" style="verticalLabelPosition=bottom;html=1;verticalAlign=top;align=center;strokeColor=none;fillColor=#00BEF2;shape=mxgraph.azure.virtual_machine;fontSize=6;" vertex="1" parent="1">
                    <mxGeometry x="650" y="440" width="30" height="20" as="geometry"/>
                </mxCell>
            </root>
        </mxGraphModel>
    </diagram>
</mxfile>